<?xml version="1.0" encoding="UTF-8" standalone="no"?>
<!-- Created with Inkscape (http://www.inkscape.org/) -->

<svg
   width="2.5cm"
   height="2.5cm"
   viewBox="0 0 25 25"
   version="1.1"
   id="svg1"
   xml:space="preserve"
   inkscape:version="1.4.2 (ebf0e940d0, 2025-05-08)"
   sodipodi:docname="Praktoolkit_2.svg"
   inkscape:export-filename="Praktoolkit_2.png"
   inkscape:export-xdpi="195.07199"
   inkscape:export-ydpi="195.07199"
   xmlns:inkscape="http://www.inkscape.org/namespaces/inkscape"
   xmlns:sodipodi="http://sodipodi.sourceforge.net/DTD/sodipodi-0.dtd"
   xmlns="http://www.w3.org/2000/svg"
   xmlns:svg="http://www.w3.org/2000/svg"><sodipodi:namedview
     id="namedview1"
     pagecolor="#ffffff"
     bordercolor="#666666"
     borderopacity="1.0"
     inkscape:showpageshadow="2"
     inkscape:pageopacity="0.0"
     inkscape:pagecheckerboard="0"
     inkscape:deskcolor="#d1d1d1"
     inkscape:document-units="mm"
     showgrid="false"
     inkscape:zoom="9.69378"
     inkscape:cx="34.919299"
     inkscape:cy="48.587857"
     inkscape:window-width="1920"
     inkscape:window-height="1163"
     inkscape:window-x="0"
     inkscape:window-y="0"
     inkscape:window-maximized="1"
     inkscape:current-layer="layer1"><inkscape:grid
       id="grid1"
       units="mm"
       originx="0"
       originy="0"
       spacingx="4.9999999"
       spacingy="4.9999999"
       empcolor="#0099e5"
       empopacity="0.30196078"
       color="#0099e5"
       opacity="0.14901961"
       empspacing="5"
       enabled="true"
       visible="false" /></sodipodi:namedview><defs
     id="defs1" /><g
     inkscape:label="Ebene 1"
     inkscape:groupmode="layer"
     id="layer1"><g
       id="g11"
       transform="matrix(2.8796515,0.53764555,-0.52858326,2.9078474,46.489627,-221.66779)"
       style="stroke:#00876c;stroke-width:1.91559;stroke-opacity:1"><path
         style="fill:none;stroke:#00876c;stroke-width:0.191559;stroke-linecap:round;stroke-linejoin:miter;stroke-dasharray:none;stroke-opacity:1"
         d="m 4.0214017,81.466803 c -0.03518,-0.02662 -0.331272,-0.250735 -0.373221,-0.259429 -0.07502,-0.01386 -0.287284,0.144724 -0.497881,0.133515"
         id="path11-3-5"
         sodipodi:nodetypes="ccc" /><path
         style="fill:none;stroke:#00876c;stroke-width:0.191559;stroke-linecap:round;stroke-linejoin:miter;stroke-dasharray:none;stroke-opacity:1"
         d="m 1.4191978,79.597617 c 0.1878489,-0.0072 0.7199568,-0.553429 0.9270884,-0.334746 0.2071314,0.218682 -0.3648656,0.703795 -0.353657,0.914392"
         id="path11-3-2"
         sodipodi:nodetypes="czc" /><path
         style="fill:none;stroke:#00876c;stroke-width:0.191559;stroke-linecap:round;stroke-linejoin:miter;stroke-dasharray:none;stroke-opacity:1"
         d="m 0.75290771,78.310988 c 0.0289593,-0.0324 0.29403479,-0.319814 0.44328879,-0.207584 0.2071314,0.218682 -0.3648656,0.703795 -0.353657,0.914392"
         id="path11-3-6-3"
         sodipodi:nodetypes="ccc" /><path
         style="fill:none;stroke:#00876c;stroke-width:0.191559;stroke-linecap:round;stroke-linejoin:miter;stroke-dasharray:none;stroke-opacity:1"
         d="M 0.84891764,79.016926 C 1.0367665,79.009726 1.5688744,78.463497 1.776006,78.68218 1.9831374,78.900862 1.4111404,79.385975 1.422349,79.596572"
         id="path11-3-6"
         sodipodi:nodetypes="czc" /><path
         style="fill:none;stroke:#00876c;stroke-width:0.191559;stroke-linecap:round;stroke-linejoin:miter;stroke-dasharray:none;stroke-opacity:1"
         d="m 2.5736493,80.760337 c 0.1878489,-0.0072 0.7199568,-0.553429 0.9270884,-0.334746 0.2071314,0.218682 -0.3648656,0.703795 -0.353657,0.914392"
         id="path11-3-2-5"
         sodipodi:nodetypes="czc" /><path
         style="fill:none;stroke:#00876c;stroke-width:0.191559;stroke-linecap:round;stroke-linejoin:miter;stroke-dasharray:none;stroke-opacity:1"
         d="m 1.9982015,80.179646 c 0.1878489,-0.0072 0.7199568,-0.553429 0.9270884,-0.334746 0.2071314,0.218682 -0.3648656,0.703795 -0.353657,0.914392"
         id="path11-3-6-4"
         sodipodi:nodetypes="czc" /></g><path
       style="fill:none;fill-opacity:1;stroke:#00876c;stroke-width:0.563649;stroke-linecap:butt;stroke-linejoin:miter;stroke-dasharray:none;stroke-opacity:1"
       d="m 10.429458,18.200514 c 0,0 -8.0088799,-5.67538 -8.5168438,-6.070146 -0.2865987,-0.41807 0.2638667,-1.097357 0.6408025,-0.99033 0.598304,0.328393 13.4335413,7.037175 13.4335413,7.037175 z"
       id="path4"
       sodipodi:nodetypes="ccccc" /><path
       style="fill:#ffffff;fill-opacity:1;stroke:#00876c;stroke-width:0.676379;stroke-linecap:round;stroke-linejoin:miter;stroke-dasharray:none;stroke-opacity:1"
       d="M 4.2311532,12.555628 4.4350448,12.276004"
       id="path5"
       sodipodi:nodetypes="cc" /><path
       style="fill:#ffffff;fill-opacity:1;stroke:#00876c;stroke-width:0.676379;stroke-linecap:round;stroke-linejoin:miter;stroke-dasharray:none;stroke-opacity:1"
       d="M 5.5244084,13.324592 5.7749075,12.957586"
       id="path6"
       sodipodi:nodetypes="cc" /><path
       style="fill:#ffffff;fill-opacity:1;stroke:#00876c;stroke-width:0.676379;stroke-linecap:round;stroke-linejoin:miter;stroke-dasharray:none;stroke-opacity:1"
       d="M 6.8351405,14.11103 7.1205894,13.674119"
       id="path7"
       sodipodi:nodetypes="cc" /><path
       style="fill:#ffffff;fill-opacity:1;stroke:#00876c;stroke-width:0.676379;stroke-linecap:round;stroke-linejoin:miter;stroke-dasharray:none;stroke-opacity:1"
       d="M 8.1225703,14.856691 8.4196698,14.338224"
       id="path8"
       sodipodi:nodetypes="cc" /><path
       style="fill:#ffffff;fill-opacity:1;stroke:#00876c;stroke-width:0.676379;stroke-linecap:round;stroke-linejoin:miter;stroke-dasharray:none;stroke-opacity:1"
       d="M 9.4158266,15.69556 9.8177834,15.095535"
       id="path9"
       sodipodi:nodetypes="cc" /><path
       style="fill:#ffffff;fill-opacity:1;stroke:#00876c;stroke-width:0.676379;stroke-linecap:round;stroke-linejoin:miter;stroke-dasharray:none;stroke-opacity:1"
       d="M 10.721043,16.435707 11.123,15.835682"
       id="path9-0"
       sodipodi:nodetypes="cc" /><path
       style="fill:#ffffff;fill-opacity:1;stroke:#00876c;stroke-width:0.676379;stroke-linecap:round;stroke-linejoin:miter;stroke-dasharray:none;stroke-opacity:1"
       d="m 12.072551,17.134764 0.401938,-0.600025"
       id="path9-6"
       sodipodi:nodetypes="cc" /><g
       id="g3"
       transform="matrix(5.6364911,0,0,5.6364911,-44.302767,-38.789535)"
       style="stroke:#00876c;stroke-opacity:1"><path
         style="fill:none;stroke:#00876c;stroke-width:0.1;stroke-linecap:butt;stroke-linejoin:miter;stroke-dasharray:none;stroke-opacity:1"
         d="m 10.558796,10.741624 -2.5110599,-0.0015 c 0,0 0.00925,-0.490136 0.5057239,-0.622655 0.4501821,-0.0029 1.72371,-0.0088 1.72371,-0.0088 z"
         id="path2"
         sodipodi:nodetypes="ccccc" /><path
         style="fill:none;stroke:#00876c;stroke-width:0.1;stroke-linecap:butt;stroke-linejoin:miter;stroke-dasharray:none;stroke-opacity:1"
         d="M 9.3544333,10.538354 H 9.9361621"
         id="path3" /></g><path
       id="rect2"
       style="fill:#000000;fill-opacity:1;stroke-width:0.563647;stroke-linecap:round;stroke-linejoin:round;stroke-miterlimit:1.5;paint-order:markers fill stroke"
       d="M 15.754077 2.940389 C 14.459925 2.940389 13.417786 4.0317965 13.417786 5.3872681 L 13.417786 19.612756 C 13.417786 20.968228 14.459925 22.059635 15.754077 22.059635 C 17.04823 22.059635 18.089852 20.968228 18.089852 19.612756 L 18.089852 5.3872681 C 18.089852 4.0317965 17.04823 2.940389 15.754077 2.940389 z M 15.754077 19.104777 A 0.70850807 0.70850807 0 0 1 16.462561 19.813261 A 0.70850807 0.70850807 0 0 1 15.754077 20.521745 A 0.70850807 0.70850807 0 0 1 15.045593 19.813261 A 0.70850807 0.70850807 0 0 1 15.754077 19.104777 z " /><path
       id="path15"
       style="fill:none;fill-opacity:1;stroke:#000000;stroke-width:0.563649;stroke-linecap:round;stroke-linejoin:miter;stroke-dasharray:none;stroke-opacity:1"
       d="M 19.065108,6.2681518 C 18.795577,6.2890388 17.826587,7.4325035 17.81191,7.9808897 M 17.64553,12.895494 23.938,4.8831196 C 24.094638,4.4936901 23.405214,3.840116 22.901436,3.9860949 l -2.591055,2.0590686 m -1.246756,0.2314067 c -0.289551,0.3975396 -0.219569,0.9398024 0.156997,1.2185438 0.376567,0.2788017 0.920994,0.1911252 1.223466,-0.196872 0.30252,-0.3879675 0.225067,-0.9548785 -0.1411,-1.247016"
       sodipodi:nodetypes="cccccccssc" /><path
       style="fill:none;stroke:#000000;stroke-width:0.563644;stroke-linecap:butt;stroke-linejoin:miter;stroke-dasharray:none;stroke-opacity:1"
       d="m 17.532239,12.764629 4.093224,4.842914 1.021111,0.274019 1.600707,2.332881 -1.438348,1.266004 -2.014904,-1.943016 -0.124324,-1.089201 -4.169339,-4.931094"
       id="path17"
       sodipodi:nodetypes="cccccccc" /></g></svg>
